<mxfile host="65bd71144e">
    <diagram id="YSNLZO-yqppl2GDXLYVd" name="PÃ¡gina-1">
        <mxGraphModel dx="462" dy="260" grid="1" gridSize="10" guides="1" tooltips="1" connect="1" arrows="1" fold="1" page="1" pageScale="1" pageWidth="1169" pageHeight="827" background="none" math="0" shadow="0">
            <root>
                <mxCell id="0"/>
                <mxCell id="1" parent="0"/>
                <mxCell id="2" style="edgeStyle=none;html=1;" parent="1" source="3" edge="1">
                    <mxGeometry relative="1" as="geometry">
                        <mxPoint x="936.5625" y="770" as="targetPoint"/>
                    </mxGeometry>
                </mxCell>
                <mxCell id="3" value="" style="rounded=0;whiteSpace=wrap;html=1;" parent="1" vertex="1">
                    <mxGeometry x="620" y="660" width="490" height="110" as="geometry"/>
                </mxCell>
                <mxCell id="4" value="" style="whiteSpace=wrap;html=1;aspect=fixed;" parent="1" vertex="1">
                    <mxGeometry x="500" y="291.5" width="170" height="170" as="geometry"/>
                </mxCell>
                <mxCell id="10" value="&lt;font style=&quot;font-size: 12px;&quot;&gt;Drive de bateria&lt;/font&gt;" style="rounded=0;whiteSpace=wrap;html=1;fontSize=6;" parent="1" vertex="1">
                    <mxGeometry x="420" y="529" width="60" height="40" as="geometry"/>
                </mxCell>
                <mxCell id="13" value="&lt;font style=&quot;font-size: 12px;&quot;&gt;VDD&lt;/font&gt;" style="text;html=1;strokeColor=none;fillColor=none;align=center;verticalAlign=middle;whiteSpace=wrap;rounded=0;" parent="1" vertex="1">
                    <mxGeometry x="570" y="446.65999999999997" width="20" height="10" as="geometry"/>
                </mxCell>
                <mxCell id="25" value="&lt;font style=&quot;font-size: 12px;&quot;&gt;ESP32-S3&lt;/font&gt;" style="text;html=1;strokeColor=none;fillColor=none;align=center;verticalAlign=middle;whiteSpace=wrap;rounded=0;" parent="1" vertex="1">
                    <mxGeometry x="537.5" y="366.66" width="105" height="20" as="geometry"/>
                </mxCell>
                <mxCell id="26" value="" style="rounded=0;whiteSpace=wrap;html=1;fontSize=6;" parent="1" vertex="1">
                    <mxGeometry x="520" y="209" width="40" height="15" as="geometry"/>
                </mxCell>
                <mxCell id="27" value="&lt;font style=&quot;font-size: 12px;&quot;&gt;S1&lt;/font&gt;" style="text;html=1;strokeColor=none;fillColor=none;align=center;verticalAlign=middle;whiteSpace=wrap;rounded=0;" parent="1" vertex="1">
                    <mxGeometry x="530" y="211.5" width="20" height="10" as="geometry"/>
                </mxCell>
                <mxCell id="28" value="" style="endArrow=classic;html=1;fontSize=6;entryX=0.234;entryY=-0.005;entryDx=0;entryDy=0;entryPerimeter=0;exitX=0.5;exitY=1;exitDx=0;exitDy=0;" parent="1" source="26" target="4" edge="1">
                    <mxGeometry width="50" height="50" relative="1" as="geometry">
                        <mxPoint x="540" y="225.53" as="sourcePoint"/>
                        <mxPoint x="580" y="265.53" as="targetPoint"/>
                    </mxGeometry>
                </mxCell>
                <mxCell id="29" value="&lt;font style=&quot;&quot;&gt;&lt;font style=&quot;font-size: 12px;&quot;&gt;IO0&lt;/font&gt;&lt;br&gt;&lt;/font&gt;" style="text;html=1;strokeColor=none;fillColor=none;align=center;verticalAlign=middle;whiteSpace=wrap;rounded=0;rotation=0;" parent="1" vertex="1">
                    <mxGeometry x="525" y="296.66" width="30" height="10" as="geometry"/>
                </mxCell>
                <mxCell id="344" value="" style="endArrow=none;html=1;exitX=0;exitY=0.5;exitDx=0;exitDy=0;entryX=1;entryY=0.5;entryDx=0;entryDy=0;" parent="1" source="3" target="3" edge="1">
                    <mxGeometry width="50" height="50" relative="1" as="geometry">
                        <mxPoint x="780" y="650" as="sourcePoint"/>
                        <mxPoint x="830" y="600" as="targetPoint"/>
                    </mxGeometry>
                </mxCell>
                <mxCell id="345" value="" style="endArrow=none;html=1;exitX=0;exitY=0.75;exitDx=0;exitDy=0;entryX=1;entryY=0.75;entryDx=0;entryDy=0;" parent="1" source="3" target="3" edge="1">
                    <mxGeometry width="50" height="50" relative="1" as="geometry">
                        <mxPoint x="580" y="700" as="sourcePoint"/>
                        <mxPoint x="1070" y="700" as="targetPoint"/>
                    </mxGeometry>
                </mxCell>
                <mxCell id="346" value="&lt;font style=&quot;font-size: 14px;&quot;&gt;Eng. Adenilton Ribeiro&lt;/font&gt;" style="text;html=1;strokeColor=none;fillColor=none;align=center;verticalAlign=middle;whiteSpace=wrap;rounded=0;" parent="1" vertex="1">
                    <mxGeometry x="620" y="680" width="150" height="10" as="geometry"/>
                </mxCell>
                <mxCell id="347" value="&lt;span style=&quot;font-size: 16px;&quot;&gt;&lt;b&gt;A.R&lt;/b&gt;&lt;/span&gt;" style="text;html=1;strokeColor=none;fillColor=none;align=center;verticalAlign=middle;whiteSpace=wrap;rounded=0;" parent="1" vertex="1">
                    <mxGeometry x="620" y="700" width="80" height="10" as="geometry"/>
                </mxCell>
                <mxCell id="348" value="&lt;font size=&quot;1&quot; style=&quot;&quot;&gt;&lt;i style=&quot;font-size: 14px;&quot;&gt;Title: Diagrama de blocos &lt;/i&gt;&lt;span style=&quot;font-size: 14px;&quot;&gt;&lt;b&gt;Contole Personalizado&lt;/b&gt;&lt;/span&gt;&lt;/font&gt;" style="text;html=1;strokeColor=none;fillColor=none;align=center;verticalAlign=middle;whiteSpace=wrap;rounded=0;" parent="1" vertex="1">
                    <mxGeometry x="620" y="720" width="330" height="20" as="geometry"/>
                </mxCell>
                <mxCell id="349" value="&lt;font style=&quot;font-size: 14px;&quot;&gt;Rev: 2.0.0&lt;/font&gt;" style="text;html=1;strokeColor=none;fillColor=none;align=center;verticalAlign=middle;whiteSpace=wrap;rounded=0;" parent="1" vertex="1">
                    <mxGeometry x="620" y="750" width="80" height="10" as="geometry"/>
                </mxCell>
                <mxCell id="350" value="" style="endArrow=none;html=1;fontSize=14;exitX=1;exitY=1;exitDx=0;exitDy=0;" parent="1" source="3" edge="1">
                    <mxGeometry width="50" height="50" relative="1" as="geometry">
                        <mxPoint x="410" y="440" as="sourcePoint"/>
                        <mxPoint x="1110" y="60" as="targetPoint"/>
                    </mxGeometry>
                </mxCell>
                <mxCell id="351" value="" style="endArrow=none;html=1;fontSize=14;" parent="1" edge="1">
                    <mxGeometry width="50" height="50" relative="1" as="geometry">
                        <mxPoint x="60" y="770" as="sourcePoint"/>
                        <mxPoint x="60" y="60" as="targetPoint"/>
                    </mxGeometry>
                </mxCell>
                <mxCell id="352" value="" style="endArrow=none;html=1;fontSize=14;" parent="1" edge="1">
                    <mxGeometry width="50" height="50" relative="1" as="geometry">
                        <mxPoint x="60" y="60" as="sourcePoint"/>
                        <mxPoint x="1110" y="60" as="targetPoint"/>
                    </mxGeometry>
                </mxCell>
                <mxCell id="353" value="" style="endArrow=none;html=1;fontSize=14;" parent="1" edge="1">
                    <mxGeometry width="50" height="50" relative="1" as="geometry">
                        <mxPoint x="60" y="770" as="sourcePoint"/>
                        <mxPoint x="1110" y="770" as="targetPoint"/>
                    </mxGeometry>
                </mxCell>
                <mxCell id="354" value="" style="endArrow=none;html=1;fontSize=14;" parent="1" edge="1">
                    <mxGeometry width="50" height="50" relative="1" as="geometry">
                        <mxPoint x="30" y="800" as="sourcePoint"/>
                        <mxPoint x="30" y="30" as="targetPoint"/>
                    </mxGeometry>
                </mxCell>
                <mxCell id="355" value="" style="endArrow=none;html=1;fontSize=14;" parent="1" edge="1">
                    <mxGeometry width="50" height="50" relative="1" as="geometry">
                        <mxPoint x="1140" y="800" as="sourcePoint"/>
                        <mxPoint x="1140" y="30" as="targetPoint"/>
                    </mxGeometry>
                </mxCell>
                <mxCell id="356" value="" style="endArrow=none;html=1;fontSize=14;" parent="1" edge="1">
                    <mxGeometry width="50" height="50" relative="1" as="geometry">
                        <mxPoint x="30" y="800" as="sourcePoint"/>
                        <mxPoint x="1140" y="800" as="targetPoint"/>
                    </mxGeometry>
                </mxCell>
                <mxCell id="357" value="" style="endArrow=none;html=1;fontSize=14;" parent="1" edge="1">
                    <mxGeometry width="50" height="50" relative="1" as="geometry">
                        <mxPoint x="30" y="30" as="sourcePoint"/>
                        <mxPoint x="1140" y="30" as="targetPoint"/>
                    </mxGeometry>
                </mxCell>
                <mxCell id="358" value="" style="endArrow=none;html=1;fontSize=14;" parent="1" edge="1">
                    <mxGeometry width="50" height="50" relative="1" as="geometry">
                        <mxPoint x="60" y="414" as="sourcePoint"/>
                        <mxPoint x="30" y="414" as="targetPoint"/>
                    </mxGeometry>
                </mxCell>
                <mxCell id="359" value="" style="endArrow=none;html=1;fontSize=14;" parent="1" edge="1">
                    <mxGeometry width="50" height="50" relative="1" as="geometry">
                        <mxPoint x="60" y="229.18000000000006" as="sourcePoint"/>
                        <mxPoint x="30" y="229.18000000000006" as="targetPoint"/>
                    </mxGeometry>
                </mxCell>
                <mxCell id="360" value="" style="endArrow=none;html=1;fontSize=14;" parent="1" edge="1">
                    <mxGeometry width="50" height="50" relative="1" as="geometry">
                        <mxPoint x="60" y="609" as="sourcePoint"/>
                        <mxPoint x="30" y="609" as="targetPoint"/>
                    </mxGeometry>
                </mxCell>
                <mxCell id="361" value="&lt;font style=&quot;font-size: 16px;&quot;&gt;A&lt;/font&gt;" style="text;html=1;strokeColor=none;fillColor=none;align=center;verticalAlign=middle;whiteSpace=wrap;rounded=0;" parent="1" vertex="1">
                    <mxGeometry x="35" y="114.19" width="20" height="21.18" as="geometry"/>
                </mxCell>
                <mxCell id="362" value="&lt;font style=&quot;font-size: 16px;&quot;&gt;B&lt;/font&gt;" style="text;html=1;strokeColor=none;fillColor=none;align=center;verticalAlign=middle;whiteSpace=wrap;rounded=0;" parent="1" vertex="1">
                    <mxGeometry x="35" y="315.4" width="20" height="21.18" as="geometry"/>
                </mxCell>
                <mxCell id="363" value="&lt;font style=&quot;font-size: 16px;&quot;&gt;C&lt;/font&gt;" style="text;html=1;strokeColor=none;fillColor=none;align=center;verticalAlign=middle;whiteSpace=wrap;rounded=0;" parent="1" vertex="1">
                    <mxGeometry x="35" y="495.16" width="20" height="21.18" as="geometry"/>
                </mxCell>
                <mxCell id="364" value="&lt;font style=&quot;font-size: 16px;&quot;&gt;D&lt;/font&gt;" style="text;html=1;strokeColor=none;fillColor=none;align=center;verticalAlign=middle;whiteSpace=wrap;rounded=0;" parent="1" vertex="1">
                    <mxGeometry x="35" y="693.41" width="20" height="21.18" as="geometry"/>
                </mxCell>
                <mxCell id="365" value="" style="endArrow=none;html=1;fontSize=14;" parent="1" edge="1">
                    <mxGeometry width="50" height="50" relative="1" as="geometry">
                        <mxPoint x="1140" y="414" as="sourcePoint"/>
                        <mxPoint x="1110" y="414" as="targetPoint"/>
                    </mxGeometry>
                </mxCell>
                <mxCell id="366" value="" style="endArrow=none;html=1;fontSize=14;" parent="1" edge="1">
                    <mxGeometry width="50" height="50" relative="1" as="geometry">
                        <mxPoint x="1140" y="229.18000000000006" as="sourcePoint"/>
                        <mxPoint x="1110" y="229.18000000000006" as="targetPoint"/>
                    </mxGeometry>
                </mxCell>
                <mxCell id="367" value="" style="endArrow=none;html=1;fontSize=14;" parent="1" edge="1">
                    <mxGeometry width="50" height="50" relative="1" as="geometry">
                        <mxPoint x="1140" y="609" as="sourcePoint"/>
                        <mxPoint x="1110" y="609" as="targetPoint"/>
                    </mxGeometry>
                </mxCell>
                <mxCell id="368" value="&lt;font style=&quot;font-size: 16px;&quot;&gt;A&lt;/font&gt;" style="text;html=1;strokeColor=none;fillColor=none;align=center;verticalAlign=middle;whiteSpace=wrap;rounded=0;" parent="1" vertex="1">
                    <mxGeometry x="1115" y="114.19000000000001" width="20" height="21.18" as="geometry"/>
                </mxCell>
                <mxCell id="369" value="&lt;font style=&quot;font-size: 16px;&quot;&gt;B&lt;/font&gt;" style="text;html=1;strokeColor=none;fillColor=none;align=center;verticalAlign=middle;whiteSpace=wrap;rounded=0;" parent="1" vertex="1">
                    <mxGeometry x="1115" y="315.4" width="20" height="21.18" as="geometry"/>
                </mxCell>
                <mxCell id="370" value="&lt;font style=&quot;font-size: 16px;&quot;&gt;C&lt;/font&gt;" style="text;html=1;strokeColor=none;fillColor=none;align=center;verticalAlign=middle;whiteSpace=wrap;rounded=0;" parent="1" vertex="1">
                    <mxGeometry x="1115" y="495.15999999999997" width="20" height="21.18" as="geometry"/>
                </mxCell>
                <mxCell id="371" value="&lt;font style=&quot;font-size: 16px;&quot;&gt;D&lt;/font&gt;" style="text;html=1;strokeColor=none;fillColor=none;align=center;verticalAlign=middle;whiteSpace=wrap;rounded=0;" parent="1" vertex="1">
                    <mxGeometry x="1115" y="693.4099999999999" width="20" height="21.18" as="geometry"/>
                </mxCell>
                <mxCell id="372" value="" style="endArrow=none;html=1;fontSize=14;" parent="1" edge="1">
                    <mxGeometry width="50" height="50" relative="1" as="geometry">
                        <mxPoint x="585" y="30" as="sourcePoint"/>
                        <mxPoint x="585" y="60" as="targetPoint"/>
                    </mxGeometry>
                </mxCell>
                <mxCell id="373" value="" style="endArrow=none;html=1;fontSize=14;" parent="1" edge="1">
                    <mxGeometry width="50" height="50" relative="1" as="geometry">
                        <mxPoint x="390" y="30" as="sourcePoint"/>
                        <mxPoint x="390" y="60" as="targetPoint"/>
                    </mxGeometry>
                </mxCell>
                <mxCell id="374" value="" style="endArrow=none;html=1;fontSize=14;" parent="1" edge="1">
                    <mxGeometry width="50" height="50" relative="1" as="geometry">
                        <mxPoint x="200" y="30" as="sourcePoint"/>
                        <mxPoint x="200" y="60" as="targetPoint"/>
                    </mxGeometry>
                </mxCell>
                <mxCell id="375" value="" style="endArrow=none;html=1;fontSize=14;" parent="1" edge="1">
                    <mxGeometry width="50" height="50" relative="1" as="geometry">
                        <mxPoint x="975" y="30" as="sourcePoint"/>
                        <mxPoint x="975" y="60" as="targetPoint"/>
                    </mxGeometry>
                </mxCell>
                <mxCell id="376" value="" style="endArrow=none;html=1;fontSize=14;" parent="1" edge="1">
                    <mxGeometry width="50" height="50" relative="1" as="geometry">
                        <mxPoint x="780" y="30" as="sourcePoint"/>
                        <mxPoint x="780" y="60" as="targetPoint"/>
                    </mxGeometry>
                </mxCell>
                <mxCell id="377" value="&lt;font style=&quot;font-size: 16px;&quot;&gt;1&lt;/font&gt;" style="text;html=1;strokeColor=none;fillColor=none;align=center;verticalAlign=middle;whiteSpace=wrap;rounded=0;" parent="1" vertex="1">
                    <mxGeometry x="92" y="33" width="20" height="21.18" as="geometry"/>
                </mxCell>
                <mxCell id="378" value="&lt;font style=&quot;font-size: 16px;&quot;&gt;2&lt;/font&gt;" style="text;html=1;strokeColor=none;fillColor=none;align=center;verticalAlign=middle;whiteSpace=wrap;rounded=0;" parent="1" vertex="1">
                    <mxGeometry x="282.5" y="33" width="20" height="21.18" as="geometry"/>
                </mxCell>
                <mxCell id="379" value="&lt;font style=&quot;font-size: 16px;&quot;&gt;3&lt;/font&gt;" style="text;html=1;strokeColor=none;fillColor=none;align=center;verticalAlign=middle;whiteSpace=wrap;rounded=0;" parent="1" vertex="1">
                    <mxGeometry x="475" y="33" width="20" height="21.18" as="geometry"/>
                </mxCell>
                <mxCell id="380" value="&lt;font style=&quot;font-size: 16px;&quot;&gt;4&lt;/font&gt;" style="text;html=1;strokeColor=none;fillColor=none;align=center;verticalAlign=middle;whiteSpace=wrap;rounded=0;" parent="1" vertex="1">
                    <mxGeometry x="670" y="33" width="20" height="21.18" as="geometry"/>
                </mxCell>
                <mxCell id="381" value="&lt;font style=&quot;font-size: 16px;&quot;&gt;5&lt;/font&gt;" style="text;html=1;strokeColor=none;fillColor=none;align=center;verticalAlign=middle;whiteSpace=wrap;rounded=0;" parent="1" vertex="1">
                    <mxGeometry x="875" y="33" width="20" height="21.18" as="geometry"/>
                </mxCell>
                <mxCell id="382" value="&lt;font style=&quot;font-size: 16px;&quot;&gt;6&lt;/font&gt;" style="text;html=1;strokeColor=none;fillColor=none;align=center;verticalAlign=middle;whiteSpace=wrap;rounded=0;" parent="1" vertex="1">
                    <mxGeometry x="1115" y="32" width="20" height="21.18" as="geometry"/>
                </mxCell>
                <mxCell id="383" value="" style="endArrow=none;html=1;fontSize=14;" parent="1" edge="1">
                    <mxGeometry width="50" height="50" relative="1" as="geometry">
                        <mxPoint x="585" y="770" as="sourcePoint"/>
                        <mxPoint x="585" y="800" as="targetPoint"/>
                    </mxGeometry>
                </mxCell>
                <mxCell id="384" value="" style="endArrow=none;html=1;fontSize=14;" parent="1" edge="1">
                    <mxGeometry width="50" height="50" relative="1" as="geometry">
                        <mxPoint x="390" y="770" as="sourcePoint"/>
                        <mxPoint x="390" y="800" as="targetPoint"/>
                    </mxGeometry>
                </mxCell>
                <mxCell id="385" value="" style="endArrow=none;html=1;fontSize=14;" parent="1" edge="1">
                    <mxGeometry width="50" height="50" relative="1" as="geometry">
                        <mxPoint x="200" y="770" as="sourcePoint"/>
                        <mxPoint x="200" y="800" as="targetPoint"/>
                    </mxGeometry>
                </mxCell>
                <mxCell id="386" value="" style="endArrow=none;html=1;fontSize=14;" parent="1" edge="1">
                    <mxGeometry width="50" height="50" relative="1" as="geometry">
                        <mxPoint x="975" y="770" as="sourcePoint"/>
                        <mxPoint x="975" y="800" as="targetPoint"/>
                    </mxGeometry>
                </mxCell>
                <mxCell id="387" value="" style="endArrow=none;html=1;fontSize=14;" parent="1" edge="1">
                    <mxGeometry width="50" height="50" relative="1" as="geometry">
                        <mxPoint x="780" y="770" as="sourcePoint"/>
                        <mxPoint x="780" y="800" as="targetPoint"/>
                    </mxGeometry>
                </mxCell>
                <mxCell id="388" value="&lt;font style=&quot;font-size: 16px;&quot;&gt;1&lt;/font&gt;" style="text;html=1;strokeColor=none;fillColor=none;align=center;verticalAlign=middle;whiteSpace=wrap;rounded=0;" parent="1" vertex="1">
                    <mxGeometry x="92" y="773" width="20" height="21.18" as="geometry"/>
                </mxCell>
                <mxCell id="389" value="&lt;font style=&quot;font-size: 16px;&quot;&gt;2&lt;/font&gt;" style="text;html=1;strokeColor=none;fillColor=none;align=center;verticalAlign=middle;whiteSpace=wrap;rounded=0;" parent="1" vertex="1">
                    <mxGeometry x="282.5" y="773" width="20" height="21.18" as="geometry"/>
                </mxCell>
                <mxCell id="390" value="&lt;font style=&quot;font-size: 16px;&quot;&gt;3&lt;/font&gt;" style="text;html=1;strokeColor=none;fillColor=none;align=center;verticalAlign=middle;whiteSpace=wrap;rounded=0;" parent="1" vertex="1">
                    <mxGeometry x="475" y="773" width="20" height="21.18" as="geometry"/>
                </mxCell>
                <mxCell id="391" value="&lt;font style=&quot;font-size: 16px;&quot;&gt;4&lt;/font&gt;" style="text;html=1;strokeColor=none;fillColor=none;align=center;verticalAlign=middle;whiteSpace=wrap;rounded=0;" parent="1" vertex="1">
                    <mxGeometry x="670" y="773" width="20" height="21.18" as="geometry"/>
                </mxCell>
                <mxCell id="392" value="&lt;font style=&quot;font-size: 16px;&quot;&gt;5&lt;/font&gt;" style="text;html=1;strokeColor=none;fillColor=none;align=center;verticalAlign=middle;whiteSpace=wrap;rounded=0;" parent="1" vertex="1">
                    <mxGeometry x="875" y="773" width="20" height="21.18" as="geometry"/>
                </mxCell>
                <mxCell id="393" value="&lt;font style=&quot;font-size: 16px;&quot;&gt;6&lt;/font&gt;" style="text;html=1;strokeColor=none;fillColor=none;align=center;verticalAlign=middle;whiteSpace=wrap;rounded=0;" parent="1" vertex="1">
                    <mxGeometry x="1115" y="772" width="20" height="21.18" as="geometry"/>
                </mxCell>
                <mxCell id="394" value="" style="endArrow=none;html=1;fontSize=14;" parent="1" edge="1">
                    <mxGeometry width="50" height="50" relative="1" as="geometry">
                        <mxPoint x="10" y="820" as="sourcePoint"/>
                        <mxPoint x="10" y="10" as="targetPoint"/>
                    </mxGeometry>
                </mxCell>
                <mxCell id="395" value="" style="endArrow=none;html=1;fontSize=14;" parent="1" edge="1">
                    <mxGeometry width="50" height="50" relative="1" as="geometry">
                        <mxPoint x="10" y="820" as="sourcePoint"/>
                        <mxPoint x="1160" y="820" as="targetPoint"/>
                    </mxGeometry>
                </mxCell>
                <mxCell id="396" value="" style="endArrow=none;html=1;fontSize=14;" parent="1" edge="1">
                    <mxGeometry width="50" height="50" relative="1" as="geometry">
                        <mxPoint x="10" y="10" as="sourcePoint"/>
                        <mxPoint x="1160" y="10" as="targetPoint"/>
                    </mxGeometry>
                </mxCell>
                <mxCell id="397" value="" style="endArrow=none;html=1;fontSize=14;" parent="1" edge="1">
                    <mxGeometry width="50" height="50" relative="1" as="geometry">
                        <mxPoint x="1160" y="820" as="sourcePoint"/>
                        <mxPoint x="1160" y="10" as="targetPoint"/>
                    </mxGeometry>
                </mxCell>
                <mxCell id="405" value="" style="endArrow=none;html=1;fontSize=8;entryDx=0;entryDy=0;entryPerimeter=0;" parent="1" edge="1">
                    <mxGeometry width="50" height="50" relative="1" as="geometry">
                        <mxPoint x="657.5" y="327.48" as="sourcePoint"/>
                        <mxPoint x="657.5" y="327.30999999999995" as="targetPoint"/>
                    </mxGeometry>
                </mxCell>
                <mxCell id="406" value="" style="endArrow=none;html=1;fontSize=8;entryDx=0;entryDy=0;" parent="1" edge="1">
                    <mxGeometry width="50" height="50" relative="1" as="geometry">
                        <mxPoint x="667.5" y="317.30999999999995" as="sourcePoint"/>
                        <mxPoint x="667.5" y="317.30999999999995" as="targetPoint"/>
                    </mxGeometry>
                </mxCell>
                <mxCell id="509" value="" style="endArrow=none;html=1;fontSize=8;entryDx=0;entryDy=0;entryPerimeter=0;" parent="1" edge="1">
                    <mxGeometry width="50" height="50" relative="1" as="geometry">
                        <mxPoint x="657.5" y="422.32000000000005" as="sourcePoint"/>
                        <mxPoint x="657.5" y="422.15" as="targetPoint"/>
                    </mxGeometry>
                </mxCell>
                <mxCell id="510" value="" style="endArrow=none;html=1;fontSize=8;entryDx=0;entryDy=0;" parent="1" edge="1">
                    <mxGeometry width="50" height="50" relative="1" as="geometry">
                        <mxPoint x="667.5" y="412.15" as="sourcePoint"/>
                        <mxPoint x="667.5" y="412.15" as="targetPoint"/>
                    </mxGeometry>
                </mxCell>
                <mxCell id="528" value="" style="rounded=0;whiteSpace=wrap;html=1;fontSize=6;" parent="1" vertex="1">
                    <mxGeometry x="570" y="209" width="40" height="15" as="geometry"/>
                </mxCell>
                <mxCell id="529" value="&lt;font style=&quot;font-size: 12px;&quot;&gt;S2&lt;/font&gt;" style="text;html=1;strokeColor=none;fillColor=none;align=center;verticalAlign=middle;whiteSpace=wrap;rounded=0;" parent="1" vertex="1">
                    <mxGeometry x="580" y="211.5" width="20" height="10" as="geometry"/>
                </mxCell>
                <mxCell id="530" value="" style="endArrow=classic;html=1;fontSize=6;entryX=0.234;entryY=-0.005;entryDx=0;entryDy=0;entryPerimeter=0;exitX=0.5;exitY=1;exitDx=0;exitDy=0;" parent="1" source="528" edge="1">
                    <mxGeometry width="50" height="50" relative="1" as="geometry">
                        <mxPoint x="590" y="225.53" as="sourcePoint"/>
                        <mxPoint x="589.78" y="290.65" as="targetPoint"/>
                    </mxGeometry>
                </mxCell>
                <mxCell id="531" value="&lt;font style=&quot;&quot;&gt;&lt;font style=&quot;font-size: 12px;&quot;&gt;IO1&lt;/font&gt;&lt;br&gt;&lt;/font&gt;" style="text;html=1;strokeColor=none;fillColor=none;align=center;verticalAlign=middle;whiteSpace=wrap;rounded=0;rotation=0;" parent="1" vertex="1">
                    <mxGeometry x="575" y="296.5" width="30" height="10" as="geometry"/>
                </mxCell>
                <mxCell id="532" value="" style="rounded=0;whiteSpace=wrap;html=1;fontSize=6;" parent="1" vertex="1">
                    <mxGeometry x="620" y="209" width="40" height="15" as="geometry"/>
                </mxCell>
                <mxCell id="533" value="&lt;font style=&quot;font-size: 12px;&quot;&gt;S3&lt;/font&gt;" style="text;html=1;strokeColor=none;fillColor=none;align=center;verticalAlign=middle;whiteSpace=wrap;rounded=0;" parent="1" vertex="1">
                    <mxGeometry x="630" y="211.5" width="20" height="10" as="geometry"/>
                </mxCell>
                <mxCell id="534" value="" style="endArrow=classic;html=1;fontSize=6;entryX=0.234;entryY=-0.005;entryDx=0;entryDy=0;entryPerimeter=0;exitX=0.5;exitY=1;exitDx=0;exitDy=0;" parent="1" source="532" edge="1">
                    <mxGeometry width="50" height="50" relative="1" as="geometry">
                        <mxPoint x="640" y="225.53" as="sourcePoint"/>
                        <mxPoint x="639.78" y="290.65" as="targetPoint"/>
                    </mxGeometry>
                </mxCell>
                <mxCell id="535" value="&lt;font style=&quot;&quot;&gt;&lt;font style=&quot;font-size: 12px;&quot;&gt;IO2&lt;/font&gt;&lt;br&gt;&lt;/font&gt;" style="text;html=1;strokeColor=none;fillColor=none;align=center;verticalAlign=middle;whiteSpace=wrap;rounded=0;rotation=0;" parent="1" vertex="1">
                    <mxGeometry x="625" y="296.66" width="30" height="10" as="geometry"/>
                </mxCell>
                <mxCell id="547" value="" style="endArrow=classic;html=1;entryX=0.471;entryY=1.003;entryDx=0;entryDy=0;entryPerimeter=0;" parent="1" target="4" edge="1">
                    <mxGeometry width="50" height="50" relative="1" as="geometry">
                        <mxPoint x="580" y="549" as="sourcePoint"/>
                        <mxPoint x="530" y="485.53" as="targetPoint"/>
                    </mxGeometry>
                </mxCell>
                <mxCell id="578" value="&lt;font style=&quot;font-size: 14px;&quot;&gt;&lt;b&gt;BotÃ£o&lt;/b&gt;&lt;/font&gt;" style="text;html=1;strokeColor=none;fillColor=none;align=center;verticalAlign=middle;whiteSpace=wrap;rounded=0;" parent="1" vertex="1">
                    <mxGeometry x="562.5" y="179" width="55" height="20" as="geometry"/>
                </mxCell>
                <mxCell id="602" value="&lt;font style=&quot;font-size: 12px;&quot;&gt;Bateria&lt;/font&gt;" style="rounded=0;whiteSpace=wrap;html=1;fontSize=6;" vertex="1" parent="1">
                    <mxGeometry x="320" y="529" width="60" height="40" as="geometry"/>
                </mxCell>
                <mxCell id="603" value="&lt;font style=&quot;font-size: 12px;&quot;&gt;Carregador&lt;br&gt;&lt;br&gt;&lt;/font&gt;" style="rounded=0;whiteSpace=wrap;html=1;fontSize=6;" vertex="1" parent="1">
                    <mxGeometry x="410" y="609" width="80" height="40" as="geometry"/>
                </mxCell>
                <mxCell id="604" value="" style="endArrow=none;html=1;fontSize=12;exitX=1;exitY=0.5;exitDx=0;exitDy=0;" edge="1" parent="1" source="10">
                    <mxGeometry width="50" height="50" relative="1" as="geometry">
                        <mxPoint x="500" y="549" as="sourcePoint"/>
                        <mxPoint x="580" y="549" as="targetPoint"/>
                    </mxGeometry>
                </mxCell>
                <mxCell id="605" value="" style="endArrow=none;html=1;fontSize=12;exitX=0.5;exitY=0;exitDx=0;exitDy=0;entryX=0.5;entryY=1;entryDx=0;entryDy=0;" edge="1" parent="1" source="603" target="10">
                    <mxGeometry width="50" height="50" relative="1" as="geometry">
                        <mxPoint x="450" y="599" as="sourcePoint"/>
                        <mxPoint x="450" y="579" as="targetPoint"/>
                    </mxGeometry>
                </mxCell>
                <mxCell id="606" value="" style="endArrow=none;html=1;fontSize=12;exitX=1;exitY=0.5;exitDx=0;exitDy=0;entryX=0;entryY=0.5;entryDx=0;entryDy=0;" edge="1" parent="1" source="602" target="10">
                    <mxGeometry width="50" height="50" relative="1" as="geometry">
                        <mxPoint x="390" y="549" as="sourcePoint"/>
                        <mxPoint x="410" y="549" as="targetPoint"/>
                    </mxGeometry>
                </mxCell>
                <mxCell id="609" value="Jostick&amp;nbsp;&lt;br&gt;ESQ" style="rounded=0;whiteSpace=wrap;html=1;fontSize=12;" vertex="1" parent="1">
                    <mxGeometry x="340" y="326.66" width="60" height="40" as="geometry"/>
                </mxCell>
                <mxCell id="610" value="Jostick&amp;nbsp;&lt;br&gt;DIR" style="rounded=0;whiteSpace=wrap;html=1;fontSize=12;" vertex="1" parent="1">
                    <mxGeometry x="340" y="386.66" width="60" height="40" as="geometry"/>
                </mxCell>
                <mxCell id="611" value="MPU" style="rounded=0;whiteSpace=wrap;html=1;fontSize=12;" vertex="1" parent="1">
                    <mxGeometry x="340" y="446.66" width="60" height="40" as="geometry"/>
                </mxCell>
                <mxCell id="616" value="Trimpot&lt;br&gt;1" style="rounded=0;whiteSpace=wrap;html=1;fontSize=12;" vertex="1" parent="1">
                    <mxGeometry x="760" y="306.66" width="60" height="40" as="geometry"/>
                </mxCell>
                <mxCell id="617" value="Trimpot&lt;br&gt;2" style="rounded=0;whiteSpace=wrap;html=1;fontSize=12;" vertex="1" parent="1">
                    <mxGeometry x="760" y="366.66" width="60" height="40" as="geometry"/>
                </mxCell>
                <mxCell id="618" value="Chave&lt;br&gt;1" style="rounded=0;whiteSpace=wrap;html=1;fontSize=12;" vertex="1" parent="1">
                    <mxGeometry x="760" y="426.66" width="60" height="30" as="geometry"/>
                </mxCell>
                <mxCell id="619" value="Chave&lt;br&gt;2" style="rounded=0;whiteSpace=wrap;html=1;fontSize=12;" vertex="1" parent="1">
                    <mxGeometry x="760" y="476.66" width="60" height="30" as="geometry"/>
                </mxCell>
                <mxCell id="620" value="Display&lt;br&gt;Oled" style="rounded=0;whiteSpace=wrap;html=1;fontSize=12;" vertex="1" parent="1">
                    <mxGeometry x="340" y="266.66" width="60" height="40" as="geometry"/>
                </mxCell>
                <mxCell id="621" value="" style="endArrow=none;html=1;fontSize=12;" edge="1" parent="1">
                    <mxGeometry width="50" height="50" relative="1" as="geometry">
                        <mxPoint x="480" y="299" as="sourcePoint"/>
                        <mxPoint x="500" y="299" as="targetPoint"/>
                    </mxGeometry>
                </mxCell>
                <mxCell id="622" value="" style="endArrow=none;html=1;fontSize=12;" edge="1" parent="1">
                    <mxGeometry width="50" height="50" relative="1" as="geometry">
                        <mxPoint x="480" y="299" as="sourcePoint"/>
                        <mxPoint x="480" y="289" as="targetPoint"/>
                    </mxGeometry>
                </mxCell>
                <mxCell id="623" value="" style="endArrow=none;html=1;fontSize=12;" edge="1" parent="1">
                    <mxGeometry width="50" height="50" relative="1" as="geometry">
                        <mxPoint x="470" y="289" as="sourcePoint"/>
                        <mxPoint x="490" y="289" as="targetPoint"/>
                    </mxGeometry>
                </mxCell>
                <mxCell id="624" value="&lt;font style=&quot;&quot;&gt;&lt;font style=&quot;font-size: 12px;&quot;&gt;Wi-Fi&lt;br&gt;&lt;/font&gt;Bluetooth&lt;br&gt;&lt;/font&gt;" style="text;html=1;strokeColor=none;fillColor=none;align=center;verticalAlign=middle;whiteSpace=wrap;rounded=0;rotation=0;" vertex="1" parent="1">
                    <mxGeometry x="450" y="259" width="60" height="25" as="geometry"/>
                </mxCell>
                <mxCell id="625" value="RF&lt;br&gt;2.4Gh" style="rounded=0;whiteSpace=wrap;html=1;fontSize=12;" vertex="1" parent="1">
                    <mxGeometry x="760" y="246.66000000000003" width="60" height="40" as="geometry"/>
                </mxCell>
                <mxCell id="626" value="" style="endArrow=none;html=1;fontSize=12;" edge="1" parent="1">
                    <mxGeometry width="50" height="50" relative="1" as="geometry">
                        <mxPoint x="820" y="259" as="sourcePoint"/>
                        <mxPoint x="840" y="259" as="targetPoint"/>
                    </mxGeometry>
                </mxCell>
                <mxCell id="627" value="" style="endArrow=none;html=1;fontSize=12;" edge="1" parent="1">
                    <mxGeometry width="50" height="50" relative="1" as="geometry">
                        <mxPoint x="840" y="259" as="sourcePoint"/>
                        <mxPoint x="840" y="239" as="targetPoint"/>
                    </mxGeometry>
                </mxCell>
                <mxCell id="628" value="" style="endArrow=none;html=1;fontSize=12;" edge="1" parent="1">
                    <mxGeometry width="50" height="50" relative="1" as="geometry">
                        <mxPoint x="830" y="239" as="sourcePoint"/>
                        <mxPoint x="850" y="239" as="targetPoint"/>
                    </mxGeometry>
                </mxCell>
                <mxCell id="629" value="" style="endArrow=none;html=1;fontSize=12;exitX=0.5;exitY=0;exitDx=0;exitDy=0;" edge="1" parent="1" source="10">
                    <mxGeometry width="50" height="50" relative="1" as="geometry">
                        <mxPoint x="450" y="519" as="sourcePoint"/>
                        <mxPoint x="450" y="499" as="targetPoint"/>
                    </mxGeometry>
                </mxCell>
                <mxCell id="630" value="" style="endArrow=none;html=1;fontSize=12;" edge="1" parent="1">
                    <mxGeometry width="50" height="50" relative="1" as="geometry">
                        <mxPoint x="450" y="499" as="sourcePoint"/>
                        <mxPoint x="530" y="499" as="targetPoint"/>
                    </mxGeometry>
                </mxCell>
                <mxCell id="631" value="" style="endArrow=classic;html=1;fontSize=12;entryX=0.176;entryY=1.001;entryDx=0;entryDy=0;entryPerimeter=0;" edge="1" parent="1" target="4">
                    <mxGeometry width="50" height="50" relative="1" as="geometry">
                        <mxPoint x="530" y="499" as="sourcePoint"/>
                        <mxPoint x="520" y="439" as="targetPoint"/>
                    </mxGeometry>
                </mxCell>
                <mxCell id="633" value="" style="endArrow=none;html=1;fontSize=12;exitX=1.002;exitY=0.568;exitDx=0;exitDy=0;exitPerimeter=0;" edge="1" parent="1" source="611">
                    <mxGeometry width="50" height="50" relative="1" as="geometry">
                        <mxPoint x="410" y="469" as="sourcePoint"/>
                        <mxPoint x="450" y="469" as="targetPoint"/>
                    </mxGeometry>
                </mxCell>
                <mxCell id="634" value="" style="endArrow=none;html=1;fontSize=12;" edge="1" parent="1">
                    <mxGeometry width="50" height="50" relative="1" as="geometry">
                        <mxPoint x="450" y="469" as="sourcePoint"/>
                        <mxPoint x="450" y="439" as="targetPoint"/>
                    </mxGeometry>
                </mxCell>
                <mxCell id="635" value="" style="endArrow=classic;html=1;fontSize=12;entryX=0;entryY=0.868;entryDx=0;entryDy=0;entryPerimeter=0;" edge="1" parent="1" target="4">
                    <mxGeometry width="50" height="50" relative="1" as="geometry">
                        <mxPoint x="450" y="439" as="sourcePoint"/>
                        <mxPoint x="490" y="439" as="targetPoint"/>
                    </mxGeometry>
                </mxCell>
                <mxCell id="637" value="" style="endArrow=classic;html=1;fontSize=12;exitX=1.005;exitY=0.554;exitDx=0;exitDy=0;exitPerimeter=0;entryX=0;entryY=0.691;entryDx=0;entryDy=0;entryPerimeter=0;" edge="1" parent="1" source="610" target="4">
                    <mxGeometry width="50" height="50" relative="1" as="geometry">
                        <mxPoint x="410" y="409" as="sourcePoint"/>
                        <mxPoint x="490" y="409" as="targetPoint"/>
                    </mxGeometry>
                </mxCell>
                <mxCell id="638" value="" style="endArrow=classic;html=1;fontSize=12;exitX=1.005;exitY=0.554;exitDx=0;exitDy=0;exitPerimeter=0;entryX=0;entryY=0.338;entryDx=0;entryDy=0;entryPerimeter=0;" edge="1" parent="1" source="609" target="4">
                    <mxGeometry width="50" height="50" relative="1" as="geometry">
                        <mxPoint x="410" y="349" as="sourcePoint"/>
                        <mxPoint x="490" y="349" as="targetPoint"/>
                    </mxGeometry>
                </mxCell>
                <mxCell id="639" value="" style="endArrow=none;html=1;fontSize=12;exitX=1;exitY=0.558;exitDx=0;exitDy=0;exitPerimeter=0;" edge="1" parent="1" source="620">
                    <mxGeometry width="50" height="50" relative="1" as="geometry">
                        <mxPoint x="410" y="289" as="sourcePoint"/>
                        <mxPoint x="430" y="289" as="targetPoint"/>
                    </mxGeometry>
                </mxCell>
                <mxCell id="640" value="" style="endArrow=none;html=1;fontSize=12;" edge="1" parent="1">
                    <mxGeometry width="50" height="50" relative="1" as="geometry">
                        <mxPoint x="430" y="319" as="sourcePoint"/>
                        <mxPoint x="430" y="289" as="targetPoint"/>
                    </mxGeometry>
                </mxCell>
                <mxCell id="641" value="" style="endArrow=classic;html=1;fontSize=12;entryX=0;entryY=0.162;entryDx=0;entryDy=0;entryPerimeter=0;" edge="1" parent="1" target="4">
                    <mxGeometry width="50" height="50" relative="1" as="geometry">
                        <mxPoint x="430" y="319" as="sourcePoint"/>
                        <mxPoint x="490" y="319" as="targetPoint"/>
                    </mxGeometry>
                </mxCell>
                <mxCell id="642" value="" style="endArrow=none;html=1;fontSize=12;entryX=0;entryY=0.411;entryDx=0;entryDy=0;entryPerimeter=0;" edge="1" parent="1" target="619">
                    <mxGeometry width="50" height="50" relative="1" as="geometry">
                        <mxPoint x="700" y="489" as="sourcePoint"/>
                        <mxPoint x="750" y="489" as="targetPoint"/>
                    </mxGeometry>
                </mxCell>
                <mxCell id="643" value="" style="endArrow=none;html=1;fontSize=12;" edge="1" parent="1">
                    <mxGeometry width="50" height="50" relative="1" as="geometry">
                        <mxPoint x="700" y="489" as="sourcePoint"/>
                        <mxPoint x="700" y="439" as="targetPoint"/>
                    </mxGeometry>
                </mxCell>
                <mxCell id="644" value="" style="endArrow=classic;html=1;fontSize=12;entryX=1;entryY=0.868;entryDx=0;entryDy=0;entryPerimeter=0;" edge="1" parent="1" target="4">
                    <mxGeometry width="50" height="50" relative="1" as="geometry">
                        <mxPoint x="700" y="439" as="sourcePoint"/>
                        <mxPoint x="680" y="439" as="targetPoint"/>
                    </mxGeometry>
                </mxCell>
                <mxCell id="645" value="" style="endArrow=none;html=1;fontSize=12;entryX=0;entryY=0.411;entryDx=0;entryDy=0;entryPerimeter=0;" edge="1" parent="1" target="618">
                    <mxGeometry width="50" height="50" relative="1" as="geometry">
                        <mxPoint x="720" y="439" as="sourcePoint"/>
                        <mxPoint x="750" y="439" as="targetPoint"/>
                    </mxGeometry>
                </mxCell>
                <mxCell id="647" value="" style="endArrow=none;html=1;fontSize=12;" edge="1" parent="1">
                    <mxGeometry width="50" height="50" relative="1" as="geometry">
                        <mxPoint x="720" y="439" as="sourcePoint"/>
                        <mxPoint x="720" y="409" as="targetPoint"/>
                    </mxGeometry>
                </mxCell>
                <mxCell id="648" value="" style="endArrow=classic;html=1;fontSize=12;entryX=1;entryY=0.691;entryDx=0;entryDy=0;entryPerimeter=0;" edge="1" parent="1" target="4">
                    <mxGeometry width="50" height="50" relative="1" as="geometry">
                        <mxPoint x="720" y="409" as="sourcePoint"/>
                        <mxPoint x="680" y="409" as="targetPoint"/>
                    </mxGeometry>
                </mxCell>
                <mxCell id="649" value="" style="endArrow=none;html=1;fontSize=12;entryX=0;entryY=0.558;entryDx=0;entryDy=0;entryPerimeter=0;" edge="1" parent="1" target="617">
                    <mxGeometry width="50" height="50" relative="1" as="geometry">
                        <mxPoint x="720" y="389" as="sourcePoint"/>
                        <mxPoint x="730" y="369" as="targetPoint"/>
                    </mxGeometry>
                </mxCell>
                <mxCell id="650" value="" style="endArrow=none;html=1;fontSize=12;" edge="1" parent="1">
                    <mxGeometry width="50" height="50" relative="1" as="geometry">
                        <mxPoint x="720" y="389" as="sourcePoint"/>
                        <mxPoint x="720" y="379" as="targetPoint"/>
                    </mxGeometry>
                </mxCell>
                <mxCell id="651" value="" style="endArrow=classic;html=1;fontSize=12;entryX=1;entryY=0.515;entryDx=0;entryDy=0;entryPerimeter=0;" edge="1" parent="1" target="4">
                    <mxGeometry width="50" height="50" relative="1" as="geometry">
                        <mxPoint x="720" y="379" as="sourcePoint"/>
                        <mxPoint x="680" y="379" as="targetPoint"/>
                    </mxGeometry>
                </mxCell>
                <mxCell id="652" value="" style="endArrow=none;html=1;fontSize=12;entryX=0;entryY=0.558;entryDx=0;entryDy=0;entryPerimeter=0;" edge="1" parent="1" target="616">
                    <mxGeometry width="50" height="50" relative="1" as="geometry">
                        <mxPoint x="720" y="329" as="sourcePoint"/>
                        <mxPoint x="750" y="329" as="targetPoint"/>
                    </mxGeometry>
                </mxCell>
                <mxCell id="653" value="" style="endArrow=none;html=1;fontSize=12;" edge="1" parent="1">
                    <mxGeometry width="50" height="50" relative="1" as="geometry">
                        <mxPoint x="720" y="349" as="sourcePoint"/>
                        <mxPoint x="720" y="329" as="targetPoint"/>
                    </mxGeometry>
                </mxCell>
                <mxCell id="654" value="" style="endArrow=classic;html=1;fontSize=12;entryX=1;entryY=0.338;entryDx=0;entryDy=0;entryPerimeter=0;" edge="1" parent="1" target="4">
                    <mxGeometry width="50" height="50" relative="1" as="geometry">
                        <mxPoint x="720" y="349" as="sourcePoint"/>
                        <mxPoint x="680" y="349" as="targetPoint"/>
                    </mxGeometry>
                </mxCell>
                <mxCell id="655" value="" style="endArrow=none;html=1;fontSize=12;entryX=0;entryY=0.558;entryDx=0;entryDy=0;entryPerimeter=0;" edge="1" parent="1" target="625">
                    <mxGeometry width="50" height="50" relative="1" as="geometry">
                        <mxPoint x="700" y="269" as="sourcePoint"/>
                        <mxPoint x="750" y="269" as="targetPoint"/>
                    </mxGeometry>
                </mxCell>
                <mxCell id="656" value="" style="endArrow=none;html=1;fontSize=12;" edge="1" parent="1">
                    <mxGeometry width="50" height="50" relative="1" as="geometry">
                        <mxPoint x="700" y="319" as="sourcePoint"/>
                        <mxPoint x="700" y="269" as="targetPoint"/>
                    </mxGeometry>
                </mxCell>
                <mxCell id="657" value="" style="endArrow=classic;html=1;fontSize=12;entryX=1;entryY=0.162;entryDx=0;entryDy=0;entryPerimeter=0;" edge="1" parent="1" target="4">
                    <mxGeometry width="50" height="50" relative="1" as="geometry">
                        <mxPoint x="700" y="319" as="sourcePoint"/>
                        <mxPoint x="680" y="319" as="targetPoint"/>
                    </mxGeometry>
                </mxCell>
                <mxCell id="658" value="&lt;font style=&quot;font-size: 12px;&quot;&gt;BOOT&lt;/font&gt;" style="rounded=0;whiteSpace=wrap;html=1;fontSize=6;" vertex="1" parent="1">
                    <mxGeometry x="630" y="579" width="40" height="20" as="geometry"/>
                </mxCell>
                <mxCell id="659" value="&lt;font style=&quot;font-size: 12px;&quot;&gt;EN&lt;/font&gt;" style="rounded=0;whiteSpace=wrap;html=1;fontSize=6;" vertex="1" parent="1">
                    <mxGeometry x="690" y="579" width="40" height="20" as="geometry"/>
                </mxCell>
                <mxCell id="662" value="" style="endArrow=none;html=1;fontSize=12;" edge="1" parent="1">
                    <mxGeometry width="50" height="50" relative="1" as="geometry">
                        <mxPoint x="620" y="569" as="sourcePoint"/>
                        <mxPoint x="740" y="569" as="targetPoint"/>
                    </mxGeometry>
                </mxCell>
                <mxCell id="663" value="" style="endArrow=none;html=1;fontSize=12;" edge="1" parent="1">
                    <mxGeometry width="50" height="50" relative="1" as="geometry">
                        <mxPoint x="620" y="609" as="sourcePoint"/>
                        <mxPoint x="620" y="569" as="targetPoint"/>
                    </mxGeometry>
                </mxCell>
                <mxCell id="664" value="" style="endArrow=none;html=1;fontSize=12;" edge="1" parent="1">
                    <mxGeometry width="50" height="50" relative="1" as="geometry">
                        <mxPoint x="620" y="609" as="sourcePoint"/>
                        <mxPoint x="740" y="609" as="targetPoint"/>
                    </mxGeometry>
                </mxCell>
                <mxCell id="665" value="" style="endArrow=none;html=1;fontSize=12;" edge="1" parent="1">
                    <mxGeometry width="50" height="50" relative="1" as="geometry">
                        <mxPoint x="740" y="609" as="sourcePoint"/>
                        <mxPoint x="740" y="569" as="targetPoint"/>
                    </mxGeometry>
                </mxCell>
                <mxCell id="667" value="" style="endArrow=none;html=1;fontSize=12;" edge="1" parent="1">
                    <mxGeometry width="50" height="50" relative="1" as="geometry">
                        <mxPoint x="680" y="569" as="sourcePoint"/>
                        <mxPoint x="680" y="529" as="targetPoint"/>
                    </mxGeometry>
                </mxCell>
                <mxCell id="668" value="" style="endArrow=none;html=1;fontSize=12;" edge="1" parent="1">
                    <mxGeometry width="50" height="50" relative="1" as="geometry">
                        <mxPoint x="630" y="529" as="sourcePoint"/>
                        <mxPoint x="680" y="529" as="targetPoint"/>
                    </mxGeometry>
                </mxCell>
                <mxCell id="669" value="" style="endArrow=classic;html=1;fontSize=12;entryX=0.764;entryY=1.006;entryDx=0;entryDy=0;entryPerimeter=0;" edge="1" parent="1" target="4">
                    <mxGeometry width="50" height="50" relative="1" as="geometry">
                        <mxPoint x="630" y="529" as="sourcePoint"/>
                        <mxPoint x="630" y="479" as="targetPoint"/>
                    </mxGeometry>
                </mxCell>
                <mxCell id="670" value="&lt;font style=&quot;font-size: 14px;&quot;&gt;&lt;b&gt;BotÃ£o&lt;/b&gt;&lt;/font&gt;" style="text;html=1;strokeColor=none;fillColor=none;align=center;verticalAlign=middle;whiteSpace=wrap;rounded=0;" vertex="1" parent="1">
                    <mxGeometry x="652.5" y="619" width="55" height="20" as="geometry"/>
                </mxCell>
                <mxCell id="671" value="&lt;font style=&quot;&quot;&gt;2.4Ghz&lt;br&gt;&lt;/font&gt;" style="text;html=1;strokeColor=none;fillColor=none;align=center;verticalAlign=middle;whiteSpace=wrap;rounded=0;rotation=0;" vertex="1" parent="1">
                    <mxGeometry x="820" y="221.5" width="40" height="10" as="geometry"/>
                </mxCell>
                <mxCell id="672" value="&lt;font style=&quot;&quot;&gt;&lt;font style=&quot;font-size: 12px;&quot;&gt;SPI&lt;/font&gt;&lt;br&gt;&lt;/font&gt;" style="text;html=1;strokeColor=none;fillColor=none;align=center;verticalAlign=middle;whiteSpace=wrap;rounded=0;rotation=0;" vertex="1" parent="1">
                    <mxGeometry x="635" y="315.40000000000003" width="30" height="10" as="geometry"/>
                </mxCell>
                <mxCell id="673" value="&lt;font style=&quot;&quot;&gt;IO3&lt;br&gt;&lt;/font&gt;" style="text;html=1;strokeColor=none;fillColor=none;align=center;verticalAlign=middle;whiteSpace=wrap;rounded=0;rotation=0;" vertex="1" parent="1">
                    <mxGeometry x="635" y="341.66" width="30" height="10" as="geometry"/>
                </mxCell>
                <mxCell id="675" value="&lt;font style=&quot;&quot;&gt;IO4&lt;br&gt;&lt;/font&gt;" style="text;html=1;strokeColor=none;fillColor=none;align=center;verticalAlign=middle;whiteSpace=wrap;rounded=0;rotation=0;" vertex="1" parent="1">
                    <mxGeometry x="635" y="371.66" width="30" height="10" as="geometry"/>
                </mxCell>
                <mxCell id="676" value="&lt;font style=&quot;&quot;&gt;IO5&lt;br&gt;&lt;/font&gt;" style="text;html=1;strokeColor=none;fillColor=none;align=center;verticalAlign=middle;whiteSpace=wrap;rounded=0;rotation=0;" vertex="1" parent="1">
                    <mxGeometry x="635" y="404" width="30" height="10" as="geometry"/>
                </mxCell>
                <mxCell id="677" value="&lt;font style=&quot;&quot;&gt;IO6&lt;br&gt;&lt;/font&gt;" style="text;html=1;strokeColor=none;fillColor=none;align=center;verticalAlign=middle;whiteSpace=wrap;rounded=0;rotation=0;" vertex="1" parent="1">
                    <mxGeometry x="635" y="436.66" width="30" height="10" as="geometry"/>
                </mxCell>
                <mxCell id="678" value="&lt;font style=&quot;&quot;&gt;IO7&lt;br&gt;&lt;/font&gt;" style="text;html=1;strokeColor=none;fillColor=none;align=center;verticalAlign=middle;whiteSpace=wrap;rounded=0;rotation=0;" vertex="1" parent="1">
                    <mxGeometry x="612.5" y="446.66" width="30" height="10" as="geometry"/>
                </mxCell>
                <mxCell id="679" value="&lt;font style=&quot;&quot;&gt;IO8&lt;br&gt;&lt;/font&gt;" style="text;html=1;strokeColor=none;fillColor=none;align=center;verticalAlign=middle;whiteSpace=wrap;rounded=0;rotation=0;" vertex="1" parent="1">
                    <mxGeometry x="520" y="446.66" width="30" height="10" as="geometry"/>
                </mxCell>
            </root>
        </mxGraphModel>
    </diagram>
</mxfile>